<?xml version="1.0" encoding="utf-8"?>
<!-- Generator: Adobe Illustrator 23.0.5, SVG Export Plug-In . SVG Version: 6.00 Build 0)  -->
<svg version="1.1" id="Layer_1" xmlns="http://www.w3.org/2000/svg" xmlns:xlink="http://www.w3.org/1999/xlink" x="0px" y="0px"
	 viewBox="0 0 32 32" style="enable-background:new 0 0 32 32;" xml:space="preserve">
<style type="text/css">
	.st0{display:none;fill:#FF7D05;}
	.st1{display:none;fill:#44FF06;}
	.st2{display:none;fill:#50821A;}
	.st3{display:none;}
	.st4{display:inline;fill:#FF7D05;}
	.st5{fill:#FF7D05;}
</style>
<path class="st0" d="M6.8,18.9C6.8,18.9,6.8,18.9,6.8,18.9c-0.4-0.1-0.8-0.1-1.2-0.1c-0.1,0-0.2-0.1-0.2-0.2
	c-0.3-0.9-0.5-1.8-0.5-2.7c0-0.1,0-0.2,0.1-0.2c0.4-0.2,0.8-0.4,1.1-0.5v0.2C6.1,16.6,6.4,17.8,6.8,18.9z"/>
<path class="st0" d="M7.7,10.1c-0.7,1-1.1,2.1-1.4,3.4c-0.4-0.3-0.7-0.6-1.1-0.9c-0.1-0.1-0.1-0.1-0.1-0.2c0.3-0.8,0.6-1.5,1-2.3
	c0.1-0.1,0.2-0.2,0.4-0.2C7,9.9,7.3,10,7.7,10.1z"/>
<path class="st0" d="M10.6,23.5c-0.3,0.2-0.7,0.3-1,0.5c-0.1,0-0.2,0-0.3,0c-0.8-0.6-1.5-1.3-2.2-2.1c-0.1-0.1-0.1-0.2,0-0.3
	c0.2-0.3,0.4-0.6,0.5-0.9C8.5,21.8,9.5,22.8,10.6,23.5z"/>
<path class="st0" d="M11.9,6.5C10.8,7,9.8,7.7,9,8.5c-0.1-0.3-0.2-0.7-0.4-1c0-0.1,0-0.2,0.1-0.3c0.6-0.5,1.3-0.9,2-1.3
	c0.2-0.1,0.3-0.1,0.4,0C11.4,6.1,11.7,6.3,11.9,6.5z"/>
<path class="st0" d="M16.1,25c-0.2,0.3-0.4,0.6-0.6,0.9c0,0.1-0.1,0.1-0.2,0.1c-0.9,0-1.8-0.2-2.7-0.5c-0.1,0-0.1-0.1-0.1-0.1
	c-0.1-0.4-0.1-0.7-0.2-1.1c1.1,0.5,2.3,0.7,3.6,0.7C15.9,25,16,25,16.1,25z"/>
<path class="st0" d="M17.8,5.9c-0.7-0.2-1.3-0.2-2-0.2c-0.5,0-1,0-1.5,0.1c0.1-0.3,0.2-0.6,0.3-1c0-0.1,0.1-0.2,0.2-0.2
	c0.8-0.1,1.6-0.1,2.4,0c0.1,0,0.2,0.1,0.2,0.2C17.6,5.2,17.7,5.6,17.8,5.9z"/>
<path class="st0" d="M21.5,24.4c0,0.1,0,0.2-0.1,0.3c-0.8,0.5-1.7,0.8-2.6,1.1c0,0-0.1,0-0.2-0.1c-0.3-0.3-0.5-0.5-0.8-0.8
	c1.3-0.3,2.6-0.8,3.6-1.6C21.4,23.6,21.5,24,21.5,24.4z"/>
<path class="st0" d="M23.2,9.1L23.2,9.1C23.1,9,23,9,23,8.9C23,8.9,23,9,23.1,9C23.1,9,23.2,9.1,23.2,9.1z"/>
<path class="st0" d="M25.9,19.8c-0.4,0.9-0.9,1.7-1.5,2.4c-0.1,0.1-0.1,0.1-0.2,0c-0.4-0.1-0.8-0.3-1.2-0.4c1-1.1,1.7-2.3,2.1-3.8
	c0,0.1,0,0.3-0.1,0.4c0,0.1,0,0.1,0.1,0.2c0.3,0.3,0.5,0.5,0.8,0.8C25.9,19.6,25.9,19.7,25.9,19.8z"/>
<path class="st0" d="M26.7,16.2c0,0.1,0,0.1-0.1,0.2c-0.4,0.2-0.8,0.3-1.1,0.5c0,0-0.1,0-0.1,0c0,0,0,0,0,0c0.1-0.5,0.1-1.1,0.1-1.6
	c0-0.6-0.1-1.2-0.2-1.8h0.9c0.1,0,0.2,0,0.2,0.2c0.1,0.5,0.2,1.1,0.3,1.7c0,0.1,0,0.1,0,0.2C26.7,15.8,26.7,16,26.7,16.2z"/>
<path class="st1" d="M21.8,15.4c0,0.5-0.1,1.1-0.2,1.6H20c0,0,0,0.1,0,0.1c-0.4,1.1-1.2,2-2.3,2.5c-1.2,0.5-2.4,0.4-3.6-0.2
	c-2.2-1.1-3.2-3.8-2.1-6c0.9-1.8,2.4-2.7,4.4-2.8c1.4,0,2.7,0.5,3.7,1.4c0,0,0.1,0.1,0.1,0.1c0.1-0.1,0.2-0.2,0.3-0.3
	c0.4,0.5,0.7,1.1,0.9,1.8C21.7,14.1,21.8,14.7,21.8,15.4z"/>
<rect x="15.4" y="15.4" class="st2" width="15.2" height="1.6"/>
<path class="st0" d="M14.6,16.1h7v0.8c-0.7,2.6-3,4.5-5.8,4.5c-3.3,0-6-2.7-6-6c0-3.3,2.7-6,6-6c2,0,3.7,1,4.8,2.4
	c0.9-0.9,1.7-1.7,2.6-2.6c1,1.2,1.8,2.7,2.1,4.4c-1.3,0-2.5,0-3.8,0c-1.9,0-3.8,0-5.6,0c-0.1,0-0.2,0-0.3,0.2
	C15.3,14.5,14.9,15.3,14.6,16.1z"/>
<polygon class="st0" points="31.5,31.8 27.3,31.8 27.8,30.1 31,30.1 "/>
<path class="st0" d="M30,29.9h-4.1l0.4-1.3c0,0,0-0.1,0-0.1c0.1-0.2,0.3-0.3,0.5-0.3h2.5c0.2,0,0.4,0.1,0.5,0.3c0,0,0,0.1,0,0.1
	L30,29.9z"/>
<g class="st3">
	<path class="st4" d="M25.5,15.4c0,0.6-0.1,1.1-0.1,1.6c0,0.2-0.1,0.4-0.1,0.6c0,0.2-0.1,0.3-0.1,0.5c-0.4,1.4-1.2,2.7-2.1,3.8
		c-0.5,0.5-1,0.9-1.5,1.3c-1.1,0.8-2.3,1.3-3.6,1.6c-0.6,0.1-1.1,0.2-1.7,0.2c-0.1,0-0.2,0-0.3,0c-1.3,0-2.5-0.2-3.6-0.7
		c-0.6-0.2-1.1-0.5-1.6-0.8c-1.2-0.7-2.1-1.7-2.9-2.8c-0.4-0.6-0.7-1.2-1-1.8c-0.4-1.1-0.7-2.3-0.7-3.5v-0.2c0-0.6,0.1-1.2,0.2-1.7
		c0.2-1.2,0.7-2.4,1.4-3.4C8.1,9.5,8.5,9,9,8.5c0.8-0.8,1.8-1.5,2.9-2c0.8-0.3,1.5-0.6,2.4-0.7c0.5-0.1,1-0.1,1.5-0.1
		c0.7,0,1.4,0.1,2,0.2c2,0.4,3.8,1.5,5.1,2.9c0,0,0,0,0,0C23,9,23.1,9,23.2,9.1c-0.9,0.9-1.7,1.8-2.6,2.6c-1.1-1.5-2.8-2.4-4.8-2.4
		c-3.3,0-6,2.7-6,6c0,3.3,2.7,6,6,6c2.8,0,5.1-1.9,5.8-4.5v-0.8h-7c0.4-0.8,0.7-1.6,1.1-2.5c0-0.1,0.1-0.2,0.3-0.2
		c1.9,0,3.8,0,5.6,0c1.2,0,2.4,0,3.6,0h0l0.1,0C25.4,14.1,25.5,14.7,25.5,15.4z"/>
	<path class="st4" d="M26.8,14.3v2.5c0,0.2-0.1,0.4-0.3,0.5c0,0-0.1,0-0.1,0l-1.3,0.4l0,0v-4.1h0l0.1,0l1.2,0.3c0,0,0.1,0,0.1,0
		C26.7,14,26.8,14.1,26.8,14.3z"/>
	<path class="st4" d="M21.4,23l2.8-3.1l0.7,1.1c0,0,0,0.1,0,0.1c0.1,0.2,0.1,0.4-0.1,0.5l-1.6,1.8c-0.1,0.1-0.3,0.2-0.5,0.1
		c0,0-0.1,0-0.1,0L21.4,23z"/>
	<path class="st4" d="M14.6,24.9l4.1-0.4l-0.2,1.3c0,0,0,0.1,0,0.1c-0.1,0.2-0.2,0.3-0.4,0.3l-2.4,0.3c-0.2,0-0.4-0.1-0.5-0.2
		c0,0,0-0.1,0-0.1L14.6,24.9z"/>
	<path class="st4" d="M8.4,21.5l3.3,2.5l-1.1,0.8c0,0-0.1,0-0.1,0.1c-0.2,0.1-0.4,0.1-0.5,0l-2-1.5c-0.2-0.1-0.2-0.3-0.2-0.5
		c0,0,0-0.1,0-0.1L8.4,21.5z"/>
	<path class="st4" d="M6.2,14.7l0.6,4.1l-1.3-0.2c0,0-0.1,0-0.1,0c-0.2,0-0.3-0.2-0.4-0.4l-0.4-2.4c0-0.2,0.1-0.4,0.2-0.5
		c0,0,0.1,0,0.1,0L6.2,14.7z"/>
	<path class="st4" d="M9.8,7.8L7.2,11L6.5,9.9c0,0,0-0.1-0.1-0.1C6.3,9.7,6.3,9.5,6.5,9.3L8,7.4c0.1-0.2,0.3-0.2,0.5-0.2
		c0,0,0.1,0,0.1,0L9.8,7.8z"/>
	<path class="st4" d="M16.9,5.8l-4.1,0.4L13,4.8c0,0,0-0.1,0-0.1c0.1-0.2,0.2-0.3,0.4-0.3l2.4-0.2c0.2,0,0.4,0.1,0.5,0.3
		c0,0,0,0.1,0,0.1L16.9,5.8z"/>
	<path class="st4" d="M23.2,9.2l-3.4-2.4l1-0.8c0,0,0.1,0,0.1-0.1c0.2-0.1,0.4-0.1,0.5,0l2,1.4c0.2,0.1,0.2,0.3,0.2,0.5
		c0,0,0,0.1,0,0.1L23.2,9.2z"/>
</g>
<g>
	<path class="st5" d="M31.9,14.6v3.5c0,0.3-0.2,0.5-0.4,0.6c0,0-0.1,0-0.1,0l-1.8,0.5c-0.1,0.2-0.1,0.5-0.2,0.7
		c-0.3,1-0.7,1.9-1.2,2.7l0.9,1.4c0,0,0,0.1,0.1,0.1c0.1,0.3,0.1,0.6-0.1,0.8l-2.4,2.6c-0.2,0.2-0.5,0.3-0.8,0.2c0,0-0.1,0-0.1-0.1
		l-1.4-0.7c-0.1,0.1-0.2,0.1-0.3,0.2c-1.2,0.8-2.5,1.5-3.9,1.9L19.9,31c0,0,0,0.1,0,0.1c-0.1,0.3-0.3,0.5-0.6,0.5L15.8,32
		c-0.3,0-0.6-0.1-0.7-0.4c0,0,0-0.1-0.1-0.1l-0.7-1.7c-1.2-0.1-2.4-0.4-3.5-0.9c-0.3-0.1-0.6-0.2-0.9-0.4l-1.4,1.1
		c0,0-0.1,0-0.1,0.1c-0.2,0.1-0.5,0.1-0.8,0L5,27.4c-0.2-0.2-0.3-0.5-0.3-0.7c0,0,0-0.1,0-0.1l0.7-1.7c-0.3-0.4-0.6-0.8-0.9-1.2
		c-0.5-0.8-1-1.7-1.4-2.6c0,0,0-0.1-0.1-0.1l-1.8-0.2c0,0-0.1,0-0.1,0c-0.3-0.1-0.5-0.3-0.5-0.6l-0.5-3.5c0-0.3,0.1-0.6,0.3-0.7
		c0,0,0.1,0,0.1-0.1l1.7-0.7c0-0.6,0.1-1.2,0.3-1.8c0.2-1.2,0.7-2.4,1.2-3.5l-1-1.5c0,0-0.1-0.1-0.1-0.1C2.5,7.9,2.5,7.6,2.7,7.4
		l2.2-2.7c0.2-0.2,0.5-0.3,0.7-0.2c0,0,0.1,0,0.1,0l1.7,0.7c0.9-0.7,1.9-1.3,3-1.8C11,3.2,11.4,3,11.9,2.8l-0.2,0L12.1,1
		c0,0,0-0.1,0-0.1c0.1-0.3,0.3-0.5,0.6-0.5L16.2,0c0.3,0,0.6,0.1,0.7,0.4c0,0,0,0.1,0.1,0.1l0.7,1.8c0.4,0.1,0.9,0.1,1.3,0.2
		c1.1,0.2,2.1,0.6,3.1,1l1.3-1c0,0,0.1-0.1,0.1-0.1c0.2-0.2,0.5-0.1,0.8,0l2.8,2c0.2,0.2,0.3,0.5,0.3,0.7c0,0,0,0.1,0,0.1l-0.6,1.7
		l0,0c0,0,0,0,0,0c-1.2,1.3-2.4,2.5-3.7,3.7c-1.6-2.1-4.1-3.5-6.9-3.5c-4.8,0-8.6,3.9-8.6,8.6c0,4.8,3.9,8.6,8.6,8.6
		c4,0,7.3-2.7,8.3-6.4l-0.5,0h-10c0.5-1.2,1.5-3.5,2-4.7c0.1-0.2,0.2-0.2,0.4-0.2c2.7,0,5.4,0,8.1,0c1.7,0,3.5,0,5.2,0h0.1l0.1,0
		l1.7,0.5c0,0,0.1,0,0.1,0C31.7,14,31.9,14.3,31.9,14.6z"/>
	<path class="st5" d="M26.6,7.1L26.6,7.1L26.6,7.1C26.6,7.2,26.6,7.2,26.6,7.1z"/>
</g>
<path class="st0" d="M30.4,28.3c0,0.3-0.2,0.5-0.5,0.5s-0.5-0.2-0.5-0.5c0,0,0-0.1,0-0.1c0,0,0-0.1,0-0.1c0.1-0.2,0.3-0.3,0.5-0.3
	s0.4,0.1,0.5,0.3C30.3,28.1,30.4,28.2,30.4,28.3C30.4,28.2,30.4,28.3,30.4,28.3z"/>
</svg>
